<svg preserveAspectRatio="none" width="100%" height="100%" overflow="visible" style="display: block;" viewBox="0 0 17.5 19.5" fill="none" xmlns="http://www.w3.org/2000/svg">
<g id="Vector">
<path d="M9.75 11.75H7.75C3.88401 11.75 0.75 14.884 0.75 18.75H16.75C16.75 14.884 13.616 11.75 9.75 11.75Z" fill="var(--fill-0, #0048C4)" fill-opacity="0.16"/>
<path d="M8.75 8.75C10.9591 8.75 12.75 6.95914 12.75 4.75C12.75 2.54086 10.9591 0.75 8.75 0.75C6.54086 0.75 4.75 2.54086 4.75 4.75C4.75 6.95914 6.54086 8.75 8.75 8.75Z" fill="var(--fill-0, #0048C4)" fill-opacity="0.16"/>
<path d="M9.75 11.75H7.75C3.88401 11.75 0.75 14.884 0.75 18.75H16.75C16.75 14.884 13.616 11.75 9.75 11.75Z" stroke="var(--stroke-0, #0048C4)" strokeWidth="1.5" strokeLinecap="round" strokeLinejoin="round"/>
<path d="M8.75 8.75C10.9591 8.75 12.75 6.95914 12.75 4.75C12.75 2.54086 10.9591 0.75 8.75 0.75C6.54086 0.75 4.75 2.54086 4.75 4.75C4.75 6.95914 6.54086 8.75 8.75 8.75Z" stroke="var(--stroke-0, #0048C4)" strokeWidth="1.5" strokeLinecap="round" strokeLinejoin="round"/>
</g>
</svg>
