<svg width="20" height="20" viewBox="0 0 20 20" fill="none" xmlns="http://www.w3.org/2000/svg">
<path d="M6.25 10H13.75M14.5 5.83333H14.5068M6.1 15C6.1 15 6.7 16.5625 5.5 17.5M13.9 15C13.9 15 13.3 16.5625 14.5 17.5M10 15V17.5M13 2.5C14.7542 2.5 15.6312 2.5 16.2716 2.94706C16.6055 3.18017 16.8878 3.49389 17.0976 3.86491C17.5 4.57639 17.5 5.55092 17.5 7.5C17.5 9.44908 17.5 10.4236 17.0976 11.1351C16.8878 11.5061 16.6055 11.8198 16.2716 12.0529C15.6312 12.5 14.7542 12.5 13 12.5H7C5.24583 12.5 4.36875 12.5 3.72842 12.0529C3.3945 11.8198 3.11216 11.5061 2.90235 11.1351C2.5 10.4236 2.5 9.44908 2.5 7.5C2.5 5.55092 2.5 4.57639 2.90235 3.86491C3.11216 3.49389 3.3945 3.18017 3.72842 2.94706C4.36875 2.5 5.24583 2.5 7 2.5H13Z" stroke="#4D4D4D" stroke-width="1.2" stroke-linecap="round"/>
</svg>
