<svg xmlns="http://www.w3.org/2000/svg" width="20" height="20" viewBox="1155.63 216.625 18.7455 18.7498" fill="none">
  <path d="M1161.19 223.459C1161.62 223.041 1162.18 222.836 1162.87 222.917L1163.55 222.997C1164.19 223.073 1164.78 223.405 1165.16 223.922L1165.23 224.029L1165.25 224.062L1167.19 227.502H1169.69C1170.23 227.502 1170.75 227.792 1171 228.279L1172.96 231.979C1173.32 232.663 1173.07 233.481 1172.43 233.886C1171.84 234.26 1171.05 234.191 1170.54 233.705L1167.85 231.16H1157.5C1157.15 231.16 1156.88 230.88 1156.88 230.535C1156.88 230.189 1157.15 229.91 1157.5 229.91H1158.74L1160.29 224.943C1160.3 224.925 1160.31 224.907 1160.31 224.889C1160.53 224.373 1160.79 223.841 1161.19 223.459ZM1162.72 224.158C1162.4 224.12 1162.22 224.204 1162.06 224.359C1161.86 224.546 1161.68 224.862 1161.48 225.344L1160.05 229.91H1160.94L1162.46 227.034L1162.5 226.964C1162.61 226.808 1162.79 226.71 1162.98 226.701C1163.2 226.69 1163.41 226.797 1163.53 226.981L1165.47 229.91H1168.1L1168.22 229.921C1168.33 229.943 1168.44 229.998 1168.53 230.08L1171.4 232.797C1171.49 232.884 1171.65 232.903 1171.77 232.829C1171.88 232.758 1171.9 232.644 1171.85 232.562L1169.9 228.863C1169.87 228.807 1169.79 228.752 1169.69 228.752H1166.83C1166.6 228.752 1166.39 228.631 1166.28 228.434L1164.18 224.704C1164.02 224.455 1163.73 224.277 1163.4 224.238L1162.72 224.158ZM1162.35 229.91H1163.97L1163.07 228.55L1162.35 229.91ZM1168.56 220.415C1168.83 220.202 1169.22 220.25 1169.44 220.521C1169.65 220.793 1169.6 221.186 1169.33 221.399C1169.18 221.516 1169.15 221.633 1169.15 221.709C1169.15 221.785 1169.18 221.902 1169.33 222.02C1169.75 222.345 1169.99 222.809 1169.99 223.314C1169.99 223.818 1169.75 224.282 1169.33 224.608C1169.06 224.821 1168.67 224.773 1168.45 224.502C1168.24 224.23 1168.29 223.838 1168.56 223.625C1168.71 223.507 1168.74 223.39 1168.74 223.314C1168.74 223.237 1168.71 223.121 1168.56 223.004C1168.14 222.678 1167.9 222.213 1167.9 221.709C1167.9 221.205 1168.14 220.741 1168.56 220.415ZM1171.1 220.415C1171.37 220.202 1171.77 220.25 1171.98 220.521C1172.19 220.793 1172.14 221.186 1171.87 221.399C1171.72 221.516 1171.69 221.633 1171.69 221.709C1171.69 221.785 1171.72 221.902 1171.87 222.02C1172.29 222.345 1172.54 222.809 1172.54 223.314C1172.54 223.818 1172.29 224.282 1171.87 224.608C1171.6 224.821 1171.21 224.773 1171 224.502C1170.78 224.23 1170.83 223.838 1171.1 223.625C1171.25 223.507 1171.29 223.39 1171.29 223.314C1171.29 223.237 1171.25 223.121 1171.1 223.004C1170.69 222.678 1170.44 222.213 1170.44 221.709C1170.44 221.205 1170.69 220.741 1171.1 220.415ZM1163.66 220.104C1163.66 219.596 1163.21 219.125 1162.59 219.125C1161.96 219.125 1161.52 219.596 1161.52 220.104C1161.52 220.612 1161.96 221.083 1162.59 221.083C1163.21 221.083 1163.66 220.612 1163.66 220.104ZM1164.91 220.104C1164.91 221.367 1163.83 222.333 1162.59 222.333C1161.34 222.333 1160.27 221.367 1160.27 220.104C1160.27 218.841 1161.34 217.875 1162.59 217.875C1163.83 217.875 1164.91 218.841 1164.91 220.104Z" fill="#4D4D4D"/>
</svg>
