<svg xmlns="http://www.w3.org/2000/svg" width="20" height="20" viewBox="955.792 632.625 18.75 18.75" fill="none">
  <path d="M972.042 640.333C972.042 639.758 971.575 639.292 971 639.292H959.333C958.758 639.292 958.292 639.758 958.292 640.333V647.833C958.292 648.409 958.758 648.875 959.333 648.875H971C971.575 648.875 972.042 648.409 972.042 647.833V640.333ZM962.042 646.167V643.458H961C960.655 643.458 960.375 643.179 960.375 642.833C960.375 642.488 960.655 642.208 961 642.208H964.333C964.678 642.208 964.958 642.488 964.958 642.833C964.958 643.179 964.678 643.458 964.333 643.458H963.292V646.167C963.292 646.512 963.012 646.792 962.667 646.792C962.321 646.792 962.042 646.512 962.042 646.167ZM968.774 642.554C968.929 642.246 969.304 642.12 969.612 642.274C969.921 642.429 970.046 642.804 969.892 643.112L968.226 646.446C968.12 646.658 967.903 646.792 967.667 646.792C967.43 646.792 967.213 646.658 967.108 646.446L965.441 643.112C965.287 642.804 965.412 642.429 965.721 642.274C966.029 642.12 966.405 642.246 966.559 642.554L967.667 644.769L968.774 642.554ZM973.292 647.833C973.292 649.099 972.266 650.125 971 650.125H959.333C958.068 650.125 957.042 649.099 957.042 647.833V640.333C957.042 639.068 958.068 638.042 959.333 638.042H963.658L962.225 636.609C961.981 636.364 961.981 635.969 962.225 635.725C962.469 635.481 962.864 635.481 963.109 635.725L965.167 637.783L968.891 634.058C969.135 633.814 969.531 633.814 969.775 634.058C970.019 634.302 970.019 634.698 969.775 634.942L966.675 638.042H971C972.266 638.042 973.292 639.068 973.292 640.333V647.833Z" fill="#4D4D4D"/>
</svg>
