<svg xmlns="http://www.w3.org/2000/svg" width="20" height="20" viewBox="1155.63 164.625 18.74 18.75" fill="none">
  <path d="M1171.88 174C1171.88 170.203 1168.8 167.125 1165 167.125C1161.2 167.125 1158.12 170.203 1158.12 174C1158.12 177.797 1161.2 180.875 1165 180.875C1168.8 180.875 1171.88 177.797 1171.88 174ZM1168.24 174.712C1168.24 173.86 1167.69 172.894 1166.91 171.99C1166.23 171.191 1165.45 170.536 1165 170.182C1164.55 170.536 1163.77 171.191 1163.09 171.99C1162.31 172.894 1161.76 173.86 1161.76 174.712C1161.76 176.275 1162.98 177.875 1165 177.875C1167.02 177.875 1168.24 176.275 1168.24 174.712ZM1166.2 174.859C1166.2 174.513 1166.48 174.234 1166.82 174.234C1167.17 174.234 1167.45 174.513 1167.45 174.859C1167.45 176.209 1166.35 177.304 1165 177.304C1164.65 177.304 1164.38 177.024 1164.38 176.679C1164.38 176.334 1164.65 176.054 1165 176.054C1165.66 176.054 1166.2 175.519 1166.2 174.859ZM1169.49 174.712C1169.49 176.884 1167.79 179.125 1165 179.125C1162.21 179.125 1160.51 176.884 1160.51 174.712C1160.51 173.386 1161.33 172.123 1162.14 171.175C1162.97 170.203 1163.91 169.437 1164.36 169.093L1164.43 169.042C1164.78 168.82 1165.22 168.82 1165.57 169.042L1165.64 169.093L1166.06 169.426C1166.55 169.833 1167.24 170.446 1167.86 171.175C1168.67 172.123 1169.49 173.386 1169.49 174.712ZM1173.12 174C1173.12 178.487 1169.49 182.125 1165 182.125C1160.51 182.125 1156.88 178.487 1156.88 174C1156.88 169.513 1160.51 165.875 1165 165.875C1169.49 165.875 1173.12 169.513 1173.12 174Z" fill="#4D4D4D"/>
</svg>
